<svg width="572" height="624" viewBox="0 0 572 624" fill="none" xmlns="http://www.w3.org/2000/svg">
<path d="M294 -0.00012207C302.941 0.0139 311.716 2.09702 320 5.453C354.428 19.399 373.739 56.0699 383.421 89.9999C386.292 100.06 389.173 110.541 390 121C396.517 121.001 402.717 121.558 409 123.44C452.843 136.574 455.09 192.86 449.87 230C448.77 237.825 447.084 245.423 444.856 253C442.126 262.283 438.038 271.774 432.934 280C401.19 331.164 330.222 331.085 277 331C237.848 330.937 189.226 324.594 160.015 295.961C151.387 287.504 145.238 276.936 140.312 266C136.764 258.125 134.282 249.421 132.424 241C131.033 234.693 130.423 228.379 129.576 222C124.912 186.912 130.833 136.138 170 123.36C176.516 121.234 183.217 121 190 121C190.255 108.649 194.464 95.6509 198.333 83.9999C210.079 48.6339 230.948 13.1646 269 2.42761C277.345 0.0736728 285.405 -0.0141219 294 -0.00012207ZM371 147C362.413 153.244 354.349 159.023 347.171 167C330.282 185.766 319.894 210.318 312 234C307.497 247.509 303.128 261.734 302 276H278C277.771 264.909 274.449 253.609 271.421 243C263.727 216.036 251.843 186.364 231.984 166C224.907 158.742 217.455 151.962 208 148C205.52 158.415 207 170.331 207 181C207 210.008 211.44 238.857 218.475 267C221.661 279.742 226.067 292.204 229 305C240.014 305.473 250.971 308.155 262 308.911C278.455 310.037 294.594 309.001 311 309C320.046 308.999 329.051 308.047 338 306.728C341.512 306.211 346.431 306.166 349.581 304.436C352.678 302.735 353.069 298.072 353.884 295C356.194 286.3 358.941 277.742 361.127 269C368.518 239.434 373 209.468 373 179C373 169.258 375.307 155.962 371 147ZM187 143C159.94 143.227 151.039 171.164 150.039 194C148.288 233.981 159.316 287.149 205 298C202.971 284.261 197.42 270.638 194.424 257C189.259 233.482 187.01 209.959 185.961 186C185.345 171.931 184.406 156.973 187 143ZM393 143C393.247 154.962 395.485 167.018 394.961 179C393.176 219.752 386.135 258.762 375 298C381.451 296.507 387.427 293.885 393 290.302C425.362 269.497 430.935 230.274 430.015 195C429.411 171.87 420.523 143.228 393 143ZM362.421 94.9999C351.999 58.4769 324.136 13.9678 280 22.2606C274.057 23.3766 268.302 25.4014 263 28.3134C228.863 47.0613 216.87 89.5759 210 125C255.235 143.833 273.726 189.498 290 232C294.962 222.871 297.3 211.645 301.427 202C309.619 182.861 320.293 163.886 335.004 149C342.222 141.695 349.867 134.645 359 129.782C362.346 128 368.432 126.446 368.562 121.895C368.806 113.323 364.752 103.166 362.421 94.9999Z" fill="white"/>
<path d="M532.499 390.028C537.31 386.714 549.288 389 555 389C551.903 400.322 546.025 411.212 541.421 422C533.038 441.647 524.805 461.353 516.421 481L506.281 505C505.082 507.787 504.132 512.16 501.501 513.972C496.69 517.285 484.712 515 479 515C482.035 507.601 485.393 500.336 488.576 493C490.025 489.659 492.459 485.707 492.597 482C492.713 478.892 490.788 475.767 489.576 473C486.639 466.292 483.475 459.572 480.244 453C469.889 431.938 459.019 410.662 450 389H466C468.334 389.005 471.334 388.611 473.363 390.028C477.777 393.112 479.9 402.29 482.247 407C490.415 423.389 497.16 440.455 505 457C510.419 440.373 517.706 424.234 524.2 408C526.125 403.187 528.09 393.065 532.499 390.028ZM364.454 409C378.988 384.486 416.526 378.689 436.56 400.171C447.03 411.397 449 426.324 449 441H381C381.181 444.948 381.97 448.464 383.825 452C385.399 455.002 387.537 457.592 390.015 459.895C405.647 474.422 423.541 463.525 438 454C441.092 459.244 444.424 464.488 447 470C430.212 482.434 410.888 489.185 390 482.958C359.784 473.948 349.043 434.991 364.454 409ZM187 387.439C193.855 386.368 201.289 386.705 208 388.375C242.587 396.98 254.88 443.429 231.535 469.911C224.294 478.125 213.676 482.881 203 484.561C187.739 486.963 170.268 483.265 159.3 471.826C142.835 454.654 142.105 421.237 157.329 403.004C164.801 394.054 175.693 389.205 187 387.439ZM47 361V411H107V361H130V482H107V430H47V482H24V361H47ZM294 389.915C310.264 382.332 333.825 388.202 340.441 406C343.867 415.217 343 425.366 343 435V482H322V435C322 427.358 322.666 418.421 317.581 412.043C307.739 399.7 289.603 405.107 283.403 418C279.646 425.812 280 435.549 280 444V482H259V389H280C279.615 393.68 280.22 398.464 279 403C283.944 398.265 287.529 392.932 294 389.915ZM196 405.004C193.342 404.975 190.602 404.912 188 405.532C175.06 408.615 170.019 422.097 170 434C169.975 449.635 175.458 466.798 194 466.996C196.658 467.025 199.398 467.088 202 466.468C214.759 463.428 219.981 449.771 220 438C220.025 422.309 214.684 405.203 196 405.004ZM427 426C425.388 407.651 403.848 397.167 389.093 409.529C384.167 413.657 381.913 419.818 381 426H427Z" fill="white"/>
<path d="M418 528.439C433.594 525.984 451.873 529.915 462.699 542.039C477.845 559.002 478.16 589.516 463.671 606.999C456.531 615.615 445.961 620.836 435 622.561C419.793 624.955 401.937 620.748 391.465 608.91C376.369 591.845 375.412 560.474 390.326 543.015C397.234 534.927 407.613 530.074 418 528.439ZM167 531.926C182.525 525.776 204.577 525.2 217.91 536.518C227.916 545.012 228 556.979 228 569V620H209C208.963 615.476 208.453 611.292 207 607C197.299 625.648 167.581 627.632 153.093 613.815C140.58 601.881 143.697 581.219 158 572.272C163.476 568.846 169.71 567.019 176 565.805C186.262 563.825 196.573 563 207 563C206.25 546.621 189.721 541.638 176 546.711C169.862 548.98 165.096 553.689 159 556C157.053 552.502 151.762 547.196 152.113 543.039C152.573 537.603 162.698 533.63 167 531.926ZM101.637 502.028C103.886 500.458 107.416 501.001 110 501H127V620H105V568C105 559.393 106.448 549.28 104 541C101.18 550.789 95.1436 559.916 90.6016 569C84.5126 581.177 79.2991 594.319 72.2041 605.941C69.5659 610.261 61.0186 612.031 56.6367 608.972C51.5429 605.415 48.4859 594.466 45.7529 589C37.8899 573.274 31.199 555.325 21 541C23.124 549.923 22 559.866 22 569V620H0V501H17C19.334 501.005 22.3333 500.611 24.3633 502.028C26.5391 503.547 27.61 506.72 28.7529 509L36.2471 524C45.3321 542.17 55.191 560.244 63 579C73.026 561.822 81.3944 543.07 89.6914 525C92.1584 519.629 94.5961 514.287 97.2471 509C98.39 506.72 99.4609 503.547 101.637 502.028ZM269 545C275.272 531.828 289.205 526.439 303 529V549C299.1 548.244 295.002 546.939 291 547.339C280.268 548.413 272.356 556.872 269.761 567C268.216 573.028 269 579.822 269 586V620H247C248.695 612.88 248 605.281 248 598C248 585.979 248.024 573.998 247.496 562C247.024 551.269 248.987 540.706 247 530H268C268 535.036 267.565 540.147 269 545ZM362 528.301C364.802 527.888 369.926 527.213 371.972 529.742C375.021 533.511 373 544.318 373 549C369.762 548.162 366.376 547.158 363 547.26C352.124 547.589 343.046 555.559 340.525 566C336.432 582.955 339 602.656 339 620H318V530H339C339 535.036 338.565 540.147 340 545C343.06 535.998 352.778 529.659 362 528.301ZM511 544C519.528 522.002 555.643 523.258 566.775 542C571.811 550.477 571 560.563 571 570V620H550V575C550 566.774 550.549 557.82 544.471 551.329C534.827 541.032 519.043 546.69 513.378 558C507.81 569.116 510 583.969 510 596C510 603.9 509.161 612.276 511 620H489V530H510C510 534.73 509.653 539.442 511 544ZM207 576C200.142 577.633 192.947 578.001 186 579.4C182.952 580.013 179.829 580.56 177.004 581.92C169.341 585.609 165.848 596.344 173.214 602.347C183.248 610.525 204.787 602.67 206.786 590C207.469 585.676 207.723 580.27 207 576ZM430 605.37C463.01 600.229 457.535 539.403 423 545.465C391.181 551.051 396.459 610.593 430 605.37Z" fill="white"/>
</svg>
