<svg width="324" height="331" viewBox="0 0 324 331" fill="none" xmlns="http://www.w3.org/2000/svg">
<path d="M166 -2.34998e-05C174.941 0.0139986 183.716 2.09712 192 5.4531C226.428 19.3991 245.739 56.07 255.421 90C258.292 100.06 261.173 110.541 262 121C268.517 121.001 274.717 121.558 281 123.44C324.843 136.575 327.09 192.86 321.87 230C320.77 237.825 319.083 245.423 316.855 253C314.125 262.283 310.038 271.774 304.934 280C273.19 331.164 202.222 331.085 149 331C109.848 330.937 61.2256 324.594 32.0146 295.961C23.3867 287.504 17.2375 276.936 12.3115 266C8.76357 258.125 6.28181 249.421 4.42383 241C3.03284 234.693 2.42317 228.379 1.57617 222C-3.08782 186.912 2.83301 136.138 42 123.36C48.516 121.234 55.217 121 62 121C62.255 108.649 66.464 95.651 70.333 84C82.079 48.634 102.948 13.1647 141 2.42771C149.345 0.0737713 157.405 -0.0140234 166 -2.34998e-05ZM243 147C234.413 153.244 226.349 159.023 219.171 167C202.282 185.766 191.894 210.318 184 234C179.497 247.509 175.128 261.734 174 276H150C149.771 264.909 146.449 253.609 143.421 243C135.727 216.036 123.843 186.364 103.984 166C96.9065 158.742 89.4548 151.962 80 148C77.52 158.415 79 170.331 79 181C79 210.008 83.4396 238.857 90.4746 267C93.6606 279.742 98.067 292.204 101 305C112.014 305.473 122.971 308.155 134 308.911C150.455 310.037 166.594 309.001 183 309C192.046 308.999 201.051 308.047 210 306.728C213.512 306.212 218.431 306.166 221.581 304.436C224.678 302.735 225.069 298.072 225.884 295C228.194 286.3 230.941 277.742 233.127 269C240.518 239.434 245 209.468 245 179C245 169.258 247.307 155.962 243 147ZM59 143C31.94 143.227 23.0391 171.164 22.0391 194C20.2881 233.981 31.316 287.149 77 298C74.971 284.261 69.4198 270.638 66.4238 257C61.2588 233.482 59.0099 209.959 57.9609 186C57.3449 171.931 56.406 156.973 59 143ZM265 143C265.247 154.962 267.485 167.018 266.961 179C265.176 219.752 258.135 258.762 247 298C253.451 296.507 259.427 293.885 265 290.302C297.362 269.497 302.935 230.274 302.015 195C301.411 171.87 292.523 143.228 265 143ZM234.421 95C223.999 58.477 196.136 13.9679 152 22.2607C146.057 23.3767 140.302 25.4015 135 28.3135C100.863 47.0614 88.87 89.576 82 125C127.235 143.833 145.726 189.498 162 232C166.962 222.871 169.3 211.645 173.427 202C181.619 182.861 192.293 163.886 207.004 149C214.222 141.695 221.867 134.645 231 129.782C234.346 128 240.432 126.446 240.562 121.895C240.806 113.323 236.752 103.166 234.421 95Z" fill="white"/>
</svg>
